<svg width="358" height="357" viewBox="0 0 358 357" fill="none" xmlns="http://www.w3.org/2000/svg">
<circle cx="178.935" cy="178.333" r="178.196" fill="#FFDA2D"/>
<circle cx="178.935" cy="178.333" r="143.442" fill="#FDBF00"/>
<path d="M135.469 197.713V282.84H106.795V160.974H77.2242V138.422H106.795V124.384H77.2242V101.833H106.795V65.3921H186.993C204.616 65.3921 219.252 68.6778 230.901 75.249C242.65 81.8202 251.212 90.6814 256.589 101.833H291.834V124.384H262.712L263.16 131.851L262.861 138.422H291.834V160.974H257.634C246.981 185.466 223.135 197.713 186.097 197.713H135.469ZM234.485 132.15L233.888 124.384H135.469V138.422H234.187L234.485 132.15ZM224.778 160.974H135.469V174.265H186.993C204.118 174.265 216.713 169.835 224.778 160.974ZM135.469 101.833H222.986C214.622 93.27 202.575 88.9888 186.844 88.9888H135.469V101.833Z" fill="#FFDA2D"/>
<path d="M0.73877 178.333C0.73877 276.748 80.52 356.529 178.935 356.529C1.14079 199.142 104.854 53.3563 178.935 0.13678C80.52 0.13678 0.73877 79.918 0.73877 178.333Z" fill="black" fill-opacity="0.12"/>
</svg>
