<svg width="586" height="129" viewBox="0 0 586 129" fill="none" xmlns="http://www.w3.org/2000/svg">
<g clip-path="url(#clip0)">
<path d="M232.8 50.8C232.8 44.3 231.4 39.4 228.5 36.1C225.7 32.9 221.5 31.3 216 31.3H183.5V128.8H216C221.5 128.8 225.6 127.2 228.5 124.1C231.3 121 232.8 116.1 232.8 109.6V50.8ZM214.6 105.1C214.6 107.1 214.2 108.4 213.3 109.2C212.4 110 211.2 110.3 209.6 110.3H201.7V49.6H209.6C211.2 49.6 212.5 50 213.3 50.7C214.2 51.5 214.6 52.8 214.6 54.8V105.1Z" fill="#C5A974"/>
<path d="M252.9 31.2L231.7 128.5V128.7H250.6L262.2 69.1L273.7 128.7H292.7V128.5L271.3 31.2H252.9Z" fill="#C5A974"/>
<path d="M313.2 31.2H294.7V128.7H336.7V111.1H313.2V31.2Z" fill="#C5A974"/>
<path d="M84.2 31.3L62.8 128.6V128.8H81.9L93.5 69.2L105.1 128.8H124.2V128.6L102.7 31.3H84.2Z" fill="#C5A974"/>
<path d="M30.5 66.3L16.5 31.2H0V128.8H18.1V82.2L30.5 109.1L42.9 81.8V128.8H61C61 77.6 61.1 48.2 61.1 31.2H44.4L30.5 66.3Z" fill="#C5A974"/>
<path d="M158.1 75.4L140 31.2H126V128.8H144V87.4C154.7 116.4 158.1 125.8 159.3 128.8H176.2V31.2H158.1V75.4V75.4Z" fill="#C5A974"/>
<path d="M494.4 31.2L473 128.5V128.7H492L503.6 69.1L515.3 128.7H534.3V128.5L512.8 31.2H494.4Z" fill="#C5A974"/>
<path d="M452.6 128.7H471.7V31.1H452.6V128.7Z" fill="#C5A974"/>
<path d="M567.7 31.2V75.4L549.6 31.1H535.6V128.7H553.7V87.3C564.4 116.3 567.8 125.7 569 128.7H585.9V31.2H567.7Z" fill="#C5A974"/>
<path d="M380.7 31.2H349.2C342.9 31.2 339.8 35 339.8 42.6V117.4C339.8 125 342.9 128.8 349.2 128.8H380.7C387 128.8 390.2 125 390.2 117.4V42.5C390.2 35 387 31.2 380.7 31.2ZM371.5 110.3H358.3V49.6H371.5V110.3Z" fill="#C5A974"/>
<path d="M437.4 88.5C442.3 88.5 446.2 84.6 446.2 79.8V39.9C446.2 35.1 442.3 31.2 437.4 31.2H436.6H396.4V128.7H415V49.2H426.8C427.6 49.2 428.3 49.9 428.3 50.7V69.2C428.3 70 427.6 70.7 426.8 70.7H419.2V93.7C420.6 98.9 423.2 109.1 428.3 128.6H449.4C447.5 123.2 443.5 111.9 435.3 88.4H437.4V88.5Z" fill="#C5A974"/>
<path d="M328.7 11.2V15.2C328.7 15.2 328.7 15.2 585.9 15.2V11.2H328.7ZM0 15.1C0 15.1 0 15.1 256.9 15.1V11.1H0V15.1Z" fill="#C5A974"/>
<path d="M320.5 8.8C320.5 7.7 320.5 6.8 320.5 5.7C316.6 5.7 312.7 5.7 308.8 5.7C308.8 5 308.8 4.3 308.8 3.6C312.8 3.6 316.8 3.6 320.8 3.6C320.8 2.3 320.8 1.2 320.8 -0.0999985C315.5 -0.0999985 310.2 -0.0999985 304.9 -0.0999985C304.9 4.9 304.9 9.9 304.9 14.9C310.3 14.9 315.6 14.9 321 14.9C321 13.7 321 12.5 321 11.2C316.9 11.2 312.9 11.2 308.9 11.2C308.9 10.3 308.9 9.5 308.9 8.7C312.7 8.8 316.6 8.8 320.5 8.8ZM295.1 1.52737e-06C295.1 1.8 295.1 3.6 295.1 5.5C291.6 5.5 288.2 5.5 284.6 5.5C284.6 3.6 284.6 1.8 284.6 1.52737e-06C283.3 1.52737e-06 282 1.52737e-06 280.7 1.52737e-06C280.7 5 280.7 10 280.7 15C282 15 283.3 15 284.6 15C284.6 12.9 284.6 10.9 284.6 8.9C288.1 8.9 291.5 8.9 295.1 8.9C295.1 11 295.1 13 295.1 15C296.5 15 297.7 15 299 15C299 10 299 5 299 1.52737e-06C297.8 1.52737e-06 296.5 1.52737e-06 295.1 1.52737e-06ZM268.8 15C268.8 11.1 268.8 7.2 268.8 3.3C271 3.3 273.1 3.3 275.2 3.3C275.2 2.1 275.2 1.1 275.2 1.52737e-06C269.6 1.52737e-06 264 1.52737e-06 258.4 1.52737e-06C258.4 1.1 258.4 2.2 258.4 3.3C260.5 3.3 262.6 3.3 264.8 3.3C264.8 7.2 264.8 11.1 264.8 15C266.2 15 267.5 15 268.8 15Z" fill="#C5A974"/>
</g>
<defs>
<clipPath id="clip0">
<rect width="585.8" height="128.8" fill="white"/>
</clipPath>
</defs>
</svg>
